<svg xmlns="http://www.w3.org/2000/svg" version="1.1" xmlns:xlink="http://www.w3.org/1999/xlink" width="448" height="512"><svg xmlns="http://www.w3.org/2000/svg" version="1.1" xmlns:xlink="http://www.w3.org/1999/xlink" width="448" height="512"><svg xmlns="http://www.w3.org/2000/svg" viewBox="0 0 448 512">

  <defs>
    <radialGradient id="radial1" cx="30%" cy="20%" r="60%">
      <stop offset="0%" stop-color="#2bb7a8" stop-opacity="0.67"></stop>
      <stop offset="40%" stop-color="#2bb7a8" stop-opacity="0"></stop>
    </radialGradient>

    <radialGradient id="radial2" cx="80%" cy="10%" r="55%">
      <stop offset="0%" stop-color="#7b61ff" stop-opacity="0.67"></stop>
      <stop offset="35%" stop-color="#7b61ff" stop-opacity="0"></stop>
    </radialGradient>

    <linearGradient id="linearMain" x1="0%" y1="0%" x2="100%" y2="100%">
      <stop offset="0%" stop-color="#162c44"></stop>
      <stop offset="40%" stop-color="#1f6f8b"></stop>
      <stop offset="65%" stop-color="#2bb7a8"></stop>
      <stop offset="85%" stop-color="#3a86a8"></stop>
      <stop offset="100%" stop-color="#4b3f72"></stop>
    </linearGradient>
  </defs>

  <!-- base -->
  <path d="M384 32c35.3 0 64 28.7 64 64l0 320c0 35.3-28.7 64-64 64L64 480c-35.3 0-64-28.7-64-64L0 96C0 60.7 28.7 32 64 32l320 0zm-90.7 96.7c-9.7-2.6-19.9 2.3-23.7 11.6l-20 48c-3.4 8.2-1 17.6 5.8 23.2L280 231.7c-16.6 35.2-45.1 63.7-80.3 80.3l-20.2-24.7c-5.6-6.8-15-9.2-23.2-5.8l-48 20c-9.3 3.9-14.2 14-11.6 23.7l12 44C111.1 378 119 384 128 384c123.7 0 224-100.3 224-224c0-9-6-16.9-14.7-19.3l-44-12z" fill="url(#linearMain)"></path>

  <!-- glow 1 -->
  <path d="M384 32c35.3 0 64 28.7 64 64l0 320c0 35.3-28.7 64-64 64L64 480c-35.3 0-64-28.7-64-64L0 96C0 60.7 28.7 32 64 32l320 0zm-90.7 96.7c-9.7-2.6-19.9 2.3-23.7 11.6l-20 48c-3.4 8.2-1 17.6 5.8 23.2L280 231.7c-16.6 35.2-45.1 63.7-80.3 80.3l-20.2-24.7c-5.6-6.8-15-9.2-23.2-5.8l-48 20c-9.3 3.9-14.2 14-11.6 23.7l12 44C111.1 378 119 384 128 384c123.7 0 224-100.3 224-224c0-9-6-16.9-14.7-19.3l-44-12z" fill="url(#radial1)"></path>

  <!-- glow 2 -->
  <path d="M384 32c35.3 0 64 28.7 64 64l0 320c0 35.3-28.7 64-64 64L64 480c-35.3 0-64-28.7-64-64L0 96C0 60.7 28.7 32 64 32l320 0zm-90.7 96.7c-9.7-2.6-19.9 2.3-23.7 11.6l-20 48c-3.4 8.2-1 17.6 5.8 23.2L280 231.7c-16.6 35.2-45.1 63.7-80.3 80.3l-20.2-24.7c-5.6-6.8-15-9.2-23.2-5.8l-48 20c-9.3 3.9-14.2 14-11.6 23.7l12 44C111.1 378 119 384 128 384c123.7 0 224-100.3 224-224c0-9-6-16.9-14.7-19.3l-44-12z" fill="url(#radial2)"></path>

</svg></svg><style>@media (prefers-color-scheme: light) { :root { filter: none; } }
@media (prefers-color-scheme: dark) { :root { filter: none; } }
</style></svg>